<svg width="30" height="34" viewBox="0 0 30 34" fill="none" xmlns="http://www.w3.org/2000/svg">
<path d="M6.40909 14.5385V9.30769C6.40909 4.71948 10.2554 1 15 1C19.7446 1 23.5909 4.71948 23.5909 9.30769V14.5385M1 15.6667C1 15.0436 1.52233 14.5385 2.16667 14.5385H27.8333C28.4777 14.5385 29 15.0436 29 15.6667V31.8718C29 32.4949 28.4777 33 27.8333 33H2.16667C1.52233 33 1 32.4949 1 31.8718V15.6667ZM13.0909 25.6154C14.1453 26.635 15.8547 26.635 16.9091 25.6154C17.9635 24.5958 17.9635 22.9427 16.9091 21.9231C15.8547 20.9035 14.1453 20.9035 13.0909 21.9231C12.0365 22.9427 12.0365 24.5958 13.0909 25.6154Z" stroke="#FAFAFA" stroke-linecap="square" stroke-linejoin="round"/>
</svg>
