<svg width="143" height="16" viewBox="0 0 143 16" fill="none" xmlns="http://www.w3.org/2000/svg">
<path d="M7.488 15H8.838L13.878 2.13L13.86 15H15.354V0.438H12.978L8.172 12.912L3.33 0.438H0.972V15H2.448V2.13L7.488 15ZM23.6737 0.149999C21.7657 0.149999 20.0557 0.815999 18.8317 2.058C17.5177 3.426 16.8157 5.37 16.8157 7.728C16.8157 12.336 19.4977 15.306 23.6737 15.306C26.9857 15.306 30.5317 13.308 30.5317 7.728C30.5317 3.048 27.8317 0.149999 23.6737 0.149999ZM23.6737 13.83C21.0277 13.83 18.2917 12.228 18.2917 7.728C18.2917 3.354 21.0277 1.626 23.6737 1.626C26.3017 1.626 29.0377 3.192 29.0377 7.728C29.0377 11.634 27.0397 13.83 23.6737 13.83ZM42.851 15H44.903V0.438H43.427V13.308L34.085 0.438H32.015V15H33.491V2.13L42.851 15ZM53.2225 0.149999C51.3145 0.149999 49.6045 0.815999 48.3805 2.058C47.0665 3.426 46.3645 5.37 46.3645 7.728C46.3645 12.336 49.0465 15.306 53.2225 15.306C56.5345 15.306 60.0805 13.308 60.0805 7.728C60.0805 3.048 57.3805 0.149999 53.2225 0.149999ZM53.2225 13.83C50.5765 13.83 47.8405 12.228 47.8405 7.728C47.8405 3.354 50.5765 1.626 53.2225 1.626C55.8505 1.626 58.5865 3.192 58.5865 7.728C58.5865 11.634 56.5885 13.83 53.2225 13.83ZM73.0838 9.69C72.5078 12.354 70.6538 13.83 67.8998 13.83C65.2718 13.83 62.5358 12.228 62.5358 7.71C62.5358 3.354 65.2718 1.608 67.8998 1.608C70.0238 1.608 72.2198 2.634 72.9938 5.388H74.5058C73.7498 2.094 71.3378 0.131999 67.9178 0.131999C66.0098 0.131999 64.2998 0.815999 63.0758 2.058C61.7618 3.408 61.0598 5.37 61.0598 7.71C61.0598 12.318 63.7418 15.306 67.9178 15.306C70.7978 15.306 73.8578 13.794 74.5958 9.69H73.0838ZM85.6987 15H87.1747V0.438H85.6987V6.486H77.4187V0.438H75.9427V15H77.4187V7.89H85.6987V15ZM96.6859 8.646H94.9939L98.5039 15.018H100.232L96.6859 8.646ZM99.9259 4.542C99.9259 1.482 96.9919 0.438 95.1559 0.438L89.1439 0.455999V15.018H90.6379V8.646H91.7539H96.6859C97.7659 8.484 99.9259 7.602 99.9259 4.542ZM95.4439 7.17H90.6379V1.95H95.4439C97.0099 1.95 98.4499 2.976 98.4499 4.542C98.4499 6.396 97.4419 7.17 95.4439 7.17ZM107.908 0.149999C106 0.149999 104.29 0.815999 103.066 2.058C101.752 3.426 101.05 5.37 101.05 7.728C101.05 12.336 103.732 15.306 107.908 15.306C111.22 15.306 114.766 13.308 114.766 7.728C114.766 3.048 112.066 0.149999 107.908 0.149999ZM107.908 13.83C105.262 13.83 102.526 12.228 102.526 7.728C102.526 3.354 105.262 1.626 107.908 1.626C110.536 1.626 113.272 3.192 113.272 7.728C113.272 11.634 111.274 13.83 107.908 13.83ZM122.765 15H124.115L129.155 2.13L129.137 15H130.631V0.438H128.255L123.449 12.912L118.607 0.438H116.249V15H117.725V2.13L122.765 15ZM134.055 1.86H142.371V0.438H132.597V15H142.371V13.596H134.055V7.872L141.057 7.908V6.486H134.055V1.86Z" fill="#0D0D0D"/>
</svg>
