<svg width="36" height="34" viewBox="0 0 36 34" fill="none" xmlns="http://www.w3.org/2000/svg">
<path d="M23.238 13.6894L17.2576 3.21966C16.4735 1.84684 15.0167 1 13.4392 1H12.2079C11.8127 1 11.5126 1.35697 11.5795 1.7477L13.6227 13.6894H7.33874L4.85357 10.1998C4.44054 9.61981 3.77369 9.2756 3.06309 9.2756H1.44501C1.16186 9.2756 0.950774 9.53741 1.01001 9.81512L2.53521 16.9649C2.5372 16.9718 2.54067 16.9781 2.54521 16.9833C2.54518 16.9888 2.54517 16.9943 2.54517 16.9998L2.54521 17.0161C2.54067 17.0213 2.5372 17.0275 2.53521 17.0345L1.01001 24.1843C0.950774 24.462 1.16186 24.7238 1.44501 24.7238H3.06309C3.77369 24.7238 4.44054 24.3796 4.85357 23.7996L7.33856 20.3102H13.6228L11.5795 32.2523C11.5126 32.643 11.8127 33 12.2079 33H13.4392C15.0167 33 16.4735 32.1532 17.2576 30.7803L23.2382 20.3102H29.2664C30.6469 20.3102 32.0115 20.0143 33.2688 19.4425L33.4971 19.3386C34.4122 18.9224 35 18.0077 35 16.9998C35 15.992 34.4122 15.0773 33.4971 14.661L33.2688 14.5572C32.0115 13.9853 30.6469 13.6894 29.2664 13.6894H23.238Z" stroke="#FAFAFA" stroke-linecap="square" stroke-linejoin="round"/>
</svg>
