<svg width="16" height="16" viewBox="0 0 16 16" fill="none" xmlns="http://www.w3.org/2000/svg">
<path d="M7.52468 1.3366C7.69674 0.8878 8.30326 0.8878 8.47532 1.3366L9.9997 5.31295C10.073 5.50406 10.2442 5.63438 10.4404 5.64832L14.5217 5.9382C14.9823 5.97091 15.1698 6.57516 14.8154 6.88525L11.6763 9.63265C11.5254 9.76469 11.46 9.97556 11.5079 10.1753L12.5059 14.3308C12.6186 14.7998 12.1279 15.1733 11.7369 14.9161L8.27235 12.6377C8.10583 12.5282 7.89417 12.5282 7.72765 12.6377L4.26314 14.9161C3.87211 15.1733 3.38142 14.7998 3.49406 14.3308L4.49207 10.1753C4.54003 9.97556 4.47463 9.76469 4.32375 9.63265L1.18456 6.88525C0.830246 6.57516 1.01767 5.97091 1.47832 5.9382L5.55963 5.64832C5.75579 5.63438 5.92703 5.50406 6.0003 5.31295L7.52468 1.3366Z" stroke="#0D0D0D" stroke-linecap="square"/>
</svg>
