<svg width="15" height="18" viewBox="0 0 15 18" fill="none" xmlns="http://www.w3.org/2000/svg">
<path d="M12.9167 17H2.08334C1.48503 17 1 16.5095 1 15.9044C1 14.0922 2.11172 12.4701 3.78967 11.8341L4.12281 11.7078C6.30031 10.8825 8.69969 10.8825 10.8772 11.7078L11.2103 11.8341C12.8883 12.4701 14 14.0922 14 15.9044C14 16.5095 13.515 17 12.9167 17Z" stroke="#0D0D0D" stroke-linecap="square" stroke-linejoin="round"/>
<path d="M5.84831 8.47276C6.88505 9.01134 8.11495 9.01134 9.15169 8.47276C10.1165 7.97152 10.8078 7.05858 11.0348 5.98588L11.0954 5.69958C11.3275 4.60262 11.0796 3.45773 10.4154 2.55928L10.3181 2.42771C9.65381 1.52912 8.60939 1 7.5 1C6.39061 1 5.34619 1.52913 4.6819 2.42771L4.58463 2.55928C3.92044 3.45773 3.67252 4.60262 3.90462 5.69958L3.9652 5.98588C4.19216 7.05858 4.88345 7.97152 5.84831 8.47276Z" stroke="#0D0D0D" stroke-linecap="square" stroke-linejoin="round"/>
</svg>
