<svg width="40" height="40" viewBox="0 0 40 40" fill="none" xmlns="http://www.w3.org/2000/svg">
<rect x="0.5" y="0.5" width="39" height="39" fill="#0D0D0D" stroke="#FAFAFA"/>
<path d="M28.8328 23.9726C28.8328 23.9041 28.7612 23.9041 28.7612 23.8356C28.4747 23.2877 27.8302 22.6027 26.9707 21.8493C26.541 21.5069 26.3262 21.2329 26.1829 21.0959C25.9681 20.8219 25.9681 20.6164 26.0397 20.3425C26.1113 20.137 26.3978 19.7945 26.8991 19.1781C27.1856 18.8356 27.3288 18.6301 27.5437 18.4247C28.6179 17.0548 29.1193 16.1644 28.976 15.7534L28.9044 15.6849C28.8328 15.6164 28.7612 15.5479 28.6179 15.5479C28.4747 15.4795 28.2599 15.4795 28.045 15.5479H25.3235C25.2519 15.5479 25.2519 15.5479 25.1087 15.5479C25.0371 15.5479 24.9655 15.5479 24.9655 15.5479H24.8938H24.8222L24.7506 15.6164C24.679 15.6849 24.679 15.6849 24.679 15.7534C24.3925 16.5068 24.0344 17.1233 23.6763 17.8082C23.4615 18.1507 23.2466 18.4932 23.0318 18.7671C22.8169 19.0411 22.6737 19.2466 22.5304 19.3836C22.3872 19.5205 22.244 19.589 22.1723 19.726C22.1007 19.7945 21.9575 19.863 21.9575 19.7945C21.8859 19.7945 21.8143 19.7945 21.8143 19.726C21.7426 19.6575 21.671 19.589 21.5994 19.5205C21.5278 19.4521 21.5278 19.3151 21.4562 19.1781C21.4562 19.0411 21.4562 18.9041 21.4562 18.8356C21.4562 18.7671 21.4562 18.5616 21.4562 18.4247C21.4562 18.2192 21.4562 18.0822 21.4562 18.0137C21.4562 17.8082 21.4562 17.5343 21.4562 17.2603C21.4562 16.9863 21.4562 16.7808 21.4562 16.6438C21.4562 16.5068 21.4562 16.3014 21.4562 16.1644C21.4562 15.9589 21.4562 15.8219 21.4562 15.7534C21.4562 15.6849 21.3846 15.5479 21.3846 15.4795C21.313 15.411 21.2413 15.3425 21.1697 15.274C21.0981 15.2055 20.9549 15.2055 20.8832 15.137C20.5252 15.0685 20.0955 15 19.5941 15C18.4482 15 17.6604 15.0685 17.374 15.2055C17.2307 15.274 17.0875 15.3425 17.0159 15.4795C16.8727 15.6164 16.8727 15.6849 16.9443 15.6849C17.3024 15.7534 17.5888 15.8904 17.7321 16.0959L17.8037 16.2329C17.8753 16.3014 17.8753 16.4384 17.9469 16.6438C18.0185 16.8493 18.0185 17.0548 18.0185 17.3288C18.0185 17.7397 18.0185 18.1507 18.0185 18.4247C18.0185 18.7671 17.9469 18.9726 17.9469 19.1781C17.9469 19.3836 17.8753 19.5205 17.8037 19.589C17.7321 19.726 17.7321 19.7945 17.6604 19.7945C17.6604 19.7945 17.6604 19.863 17.5888 19.863C17.5172 19.863 17.4456 19.9315 17.3024 19.9315C17.2307 19.9315 17.0875 19.863 17.0159 19.7945C16.8727 19.726 16.7294 19.589 16.6578 19.4521C16.5146 19.3151 16.3713 19.1096 16.2281 18.8356C16.0849 18.5616 15.87 18.2877 15.7268 17.8767L15.5835 17.6027C15.5119 17.4658 15.3687 17.1918 15.2254 16.8493C15.0822 16.5068 14.939 16.2329 14.7957 15.8904C14.7241 15.7534 14.6525 15.6849 14.5809 15.6164H14.5093C14.5093 15.6164 14.4376 15.5479 14.366 15.5479C14.2944 15.5479 14.2228 15.4795 14.1512 15.4795H11.5729C11.2865 15.4795 11.1432 15.5479 11.0716 15.6164L11 15.6849C11 15.6849 11 15.7534 11 15.8219C11 15.8904 11 15.9589 11.0716 16.0959C11.4297 16.9178 11.8594 17.7397 12.2891 18.5616C12.7188 19.3151 13.1485 20 13.435 20.4795C13.7931 20.9589 14.0796 21.4384 14.4377 21.8493C14.7957 22.2603 15.0106 22.5342 15.0822 22.6712C15.2254 22.8082 15.2971 22.8767 15.3687 22.9452L15.5835 23.1507C15.7268 23.2877 15.9416 23.4932 16.2281 23.6986C16.5146 23.9041 16.8726 24.1096 17.2307 24.3151C17.5888 24.5205 18.0185 24.6575 18.4482 24.7945C18.9496 24.9315 19.3793 25 19.809 24.9315H20.8832C21.0981 24.9315 21.2413 24.863 21.3846 24.726L21.4562 24.6575C21.4562 24.589 21.5278 24.589 21.5278 24.5205C21.5278 24.4521 21.5278 24.3836 21.5278 24.2466C21.5278 23.9726 21.5278 23.7671 21.5994 23.5616C21.671 23.3562 21.671 23.2192 21.7427 23.0822C21.8143 22.9452 21.8859 22.8767 21.9575 22.8082C22.0291 22.7397 22.1007 22.6712 22.1007 22.6712H22.1723C22.3156 22.6027 22.5304 22.6712 22.6737 22.8082C22.8885 22.9452 23.1034 23.1507 23.2466 23.3562C23.3899 23.5616 23.6047 23.7671 23.8912 24.0411C24.1777 24.3151 24.3925 24.5206 24.5357 24.589L24.7506 24.726C24.8938 24.7945 25.0371 24.863 25.2519 24.9315C25.4668 25 25.61 25 25.7532 25L28.1883 24.9315C28.4031 24.9315 28.6179 24.863 28.7612 24.7945C28.9044 24.726 28.976 24.6575 28.976 24.5205C28.976 24.4521 28.976 24.3151 28.976 24.2466C28.8328 24.1096 28.8328 24.0411 28.8328 23.9726Z" fill="#FAFAFA"/>
</svg>
